<svg xmlns="http://www.w3.org/2000/svg" viewBox="0 0 1295.62 494.38"><defs><style>.cls-1{fill:#ffffff;opacity:1;isolation:isolate;}</style></defs><g id="Layer_2" data-name="Layer 2"><g id="Layer_1-2" data-name="Layer 1"><path class="cls-1" d="M302,130.74q2-5.7-6.61-12.47c-.39-.31-.79-.61-1.21-.91A56.52,56.52,0,0,0,272,107c-8.18-2.17-14.46-.8-18.63,3.56-7.09,9.71-17,25.81-29.36,48.08l-.08.15c-12.64,22.4-26.2,46.81-40.38,73.51q-6.37,11.82-12.36,22.88l0,0q-20.51,37.66-37.14,66.41h0q-3.61,6.24-7,12.07a89.91,89.91,0,0,1,0-10.12,486.71,486.71,0,0,1,7.23-56.93q2.81-16.38,5.65-31.89,5.74-31.22,11.84-58.79a15.93,15.93,0,0,0-4.45-12.73,15.38,15.38,0,0,0-2.46-2.08,47.29,47.29,0,0,0-19.2-7.61,54.2,54.2,0,0,0-21.27-.17c-6.51,1.17-10.86,3.76-13.23,7.76-8.69,18-18.31,44.09-29,77.87-.91,2.94-1.82,5.85-2.71,8.69q-5.74,18.48-11,36.77-4.44,15.22-8.62,30.36l.07.06h0l-.07-.06-6.8,24.87q-9.64,36.83-14.27,59.59a42.47,42.47,0,0,0-9.78,18.42c-2.5,9.69-1.63,19-1.63,28.81,0,7.29-6.56,12.44-7.21,20.18a16.79,16.79,0,0,0,3.19,11.49,10.48,10.48,0,0,0,4.09,3.26,10.19,10.19,0,0,0,6.23.49,14.53,14.53,0,0,0,4-1.5l.07,0,.44-.26A17.88,17.88,0,0,0,22.79,476,26,26,0,0,0,27.08,468a25.8,25.8,0,0,0,.79-3,26,26,0,0,0-.45-12.09c-1.84-6.4-6.19-12.27-5.71-18.94A18,18,0,0,1,22.6,430,17.73,17.73,0,0,1,26,424.22a31,31,0,0,0,12.28.85c5.23-.5,8.68-2.63,10.07-6.19l0-.05v0l.27-1q7.37-26.26,19-64.23l.24-.75.5-1.63q2.79-9,5.5-17.64c.13-.41.26-.83.38-1.24l1.44-4.55q7.88-24.89,15.46-47.35c0-.14.09-.27.14-.41Q95.79,266.7,99.12,257v0q2-5.91,3.69-10.47,2.45-6.76,4-10.49c-.89,4.72-1.84,10.34-2.9,16.83-1.13,7.19-2.39,15.47-3.71,24.81-2.54,17.81-4.59,34.76-6.26,50.75-.13,1.32-.25,2.6-.38,3.84h0c-1.37,13.88-1.74,23-1.24,27.57q.09.36.21.72c1.17,3.42,4.94,6.3,11.2,8.77a57.43,57.43,0,0,0,21.44,3.61c7.67-.37,13.42-2.72,17.38-7.43,1.21-1.74,4.34-6.93,9.18-15.36l3.17-5.47c3.2-5.44,6.67-11.34,10.39-17.81l3.82-6.59,1.46-2.53.09-.14h0v0h0l3.37-5.92c3.08-5.38,6.11-10.7,9.14-16,.89-1.56,1.79-3.13,2.69-4.68,5.39-9.38,10.06-17.25,13.69-23.37.87-1.48,1.67-2.78,2.37-3.91h0l0,0a27.47,27.47,0,0,1,3.74-5.41c-.27,1.48-.56,3-.88,4.52l.11,0,0,.1c-.11.59-.23,1.19-.35,1.8-.45,2.22-.94,4.53-1.45,6.94-.13.55-.24,1.1-.37,1.66q-4,19.9-8.56,45.14v0h-.09q-3,16.89-6.3,36.3c-5.49,32.19-9.51,64.62-12,96.9a11.23,11.23,0,0,0,8.69,11.52,29.3,29.3,0,0,0,15.51.58q1.11-.27,2.19-.6c.7-.21,1.35-.45,2-.7l.11,0c4.85-2,7.78-5.16,8.78-9.71q10.18-64.53,27.13-133.23Q244.34,302.38,249,285q9.93-37.11,21-70.43Q285,169.24,302,130.74Z"/><path class="cls-1" d="M432,298.07l.26-.67a301.94,301.94,0,0,0,12.08-35,207.16,207.16,0,0,0,6.52-41.7,148.75,148.75,0,0,0-2.17-35.13c-.35-1.91-.75-3.81-1.18-5.7-.14-.66-.28-1.33-.41-2A78.36,78.36,0,0,0,433.23,148c-.15-.21-.32-.41-.48-.62-.34-.44-.67-.89-1-1.32-1.09-1.37-2.22-2.69-3.4-4-9.28-10-22-16.58-38.43-19.75-8.91-1.35-16.23-.28-21.73,3.3a34.25,34.25,0,0,0-12.66,13.86A68,68,0,0,0,349.3,156a8.43,8.43,0,0,0,1.95,8.15h0l.11.13c2.09,1.87,5.06,1.69,8.89-.31,1.21-.84,2.78-1.71,4.34-2.75,4.34-2.59,8.86-5.2,13.75-7.63a29,29,0,0,1,13.4-3.26,22.26,22.26,0,0,1,12.63,5q6.27,5.57,7.92,17a100.4,100.4,0,0,1,.35,23.5A179.88,179.88,0,0,1,408,222.89a414.8,414.8,0,0,1-20.68,62.78c-1.35,3.28-2.7,6.52-4.09,9.71a500.51,500.51,0,0,1-24,48.68c-10,17.38-19.05,30.24-27.22,38.06-5.57,5.33-9.92,7.18-13.25,5.58a9.46,9.46,0,0,1-3.89-4.45c-6-16.1-6.82-35.08-2.48-56.81a295,295,0,0,1,7.78-30.54l-.13,0v0h0a324.25,324.25,0,0,1,12.89-34.23q6.9-15.59,13.83-29.09h0l0,0h0q7.51-14.61,15.06-26.87a12,12,0,0,0-.92-13.66,36.37,36.37,0,0,0-14-10.86,37.47,37.47,0,0,0-18.38-4.09,18.21,18.21,0,0,0-14.45,7.89q-6.51,10.77-13,24h0c-.63,1.3-1.26,2.63-1.89,4q-4.76,10-9.41,21.54c-.5,1.22-1,2.46-1.49,3.7a400.9,400.9,0,0,0-19.56,65.93v.11c-.71,3.58-1.37,7.13-1.91,10.6a180.66,180.66,0,0,0-1.15,51.81c2.67,13.51,9,23.9,19.12,31a79.21,79.21,0,0,0,68.55,9.3,61.17,61.17,0,0,0,10.11-5.35c7.29-4.68,14.29-11.15,21.13-19.42q6.74-8.16,12.69-16.91a236.36,236.36,0,0,0,14.21-23.56,415.56,415.56,0,0,0,20.46-43.45Z"/><path class="cls-1" d="M1293.61,102.22c-2.69-7.3-7.34-13.73-11.06-20.58s-6.62-14.62-5.34-22.31c2-12,13.4-21.85,11.23-33.69A16.81,16.81,0,0,0,1273,12.78a48.4,48.4,0,0,0-6.52-5.43A35.84,35.84,0,0,0,1248.71.16,14.37,14.37,0,0,0,1234.26,7Q1208.52,50,1155.82,141.41c-1.15,4.69-2.46,9.77-3.72,14.16-1.93,6.75-3.73,12-4.67,11.79-.1,0-.2-.11-.27-.27-.58-1.41-.43-6.61.06-13l-.06,0V154l.13,0c.39-5.32,1-11.41,1.61-16.68-3.45-24.16-5.58-42.95-6.52-56.75a10.21,10.21,0,0,0-7.27-8.73,16.77,16.77,0,0,0-2-.58A37.73,37.73,0,0,0,1115,72.48a41.87,41.87,0,0,0-17,9.38,16.26,16.26,0,0,0-5.17,15.34c2.3,10.64,4.8,22.92,7.63,36.58.6,2.89,1.23,5.8,1.86,8.69,4.35,20.9,9.17,43.06,14.47,66.69q-12,21.09-22.63,40-40.55,72.09-61.5,113.14a12.59,12.59,0,0,0,5.45,12.14,28.3,28.3,0,0,0,14.27,5.78c5.24.61,9-.65,11.15-3.58q25.37-44.91,61.8-106l.39-2.17c.87-4.89,1.85-9.65,2.78-13.36,1.07-4.31,2-7.19,2.74-7.21.56.44.93,4.22.93,9.4,0,3.48,0,7.58-.19,11.78v1.58a497.86,497.86,0,0,0,19.85,61.11,10.86,10.86,0,0,0,3.21,2.62c2.57,1.38,5.71,1.62,9.43.77a36.14,36.14,0,0,0,14.62-7.17c4.35-3.67,6.24-7.3,5.72-10.86q-4.8-18.41-9.08-36.11h0q-8.64-36.06-14.9-69.21,12.41-20.23,24.28-39.21l0,0h0l0,0q22.89-36.54,43.79-68.4,16.61-25.15,29.33-42.67l0-.06q.48,1.45,1.08,2.85a33.78,33.78,0,0,0,4.68,7.83c4.21,5.22,10.27,9.3,12.33,15.71,1.63,5,.42,10.47-1.08,15.53s-3.37,10.21-2.83,15.47,4,10.69,9.24,11.36a11.69,11.69,0,0,0,6-1.36,11.83,11.83,0,0,0,4.53-4.24C1296.69,118.27,1296.3,109.52,1293.61,102.22Z"/><path class="cls-1" d="M791.45,185.85q3.27-4.71,6.37-9.67h0c1.39-2.19,2.73-4.37,4-6.55,12.4-20.54,21.45-40.52,26.89-60a49.51,49.51,0,0,0-3.43-32.29A67.87,67.87,0,0,0,803.94,50.6a49.29,49.29,0,0,0-30.89-10.49h0q-2.89.18-5.88.54l-.48.05-.43.06q-21,2.7-45.87,14.18c-1.19.55-2.38,1.1-3.58,1.68a300.66,300.66,0,0,0-58.65,36.93A9.94,9.94,0,0,0,657,94.77a71.34,71.34,0,0,0-10.74-16.21,58.67,58.67,0,0,0-36.35-19.05q-29.68-2.58-74.62,12.37l-1.17.38c-30.48,10.1-55.7,22.24-75.88,36.47-2.26,2-2.58,4.93-1.17,9.15a41,41,0,0,0,7.36,12.53,37.39,37.39,0,0,0,11,9.47l0,0,.12.07c4,2.17,7.34,2.17,10.29.31A239.54,239.54,0,0,1,521.74,117a317.55,317.55,0,0,1,30.4-15,14.06,14.06,0,0,0,1.33,5.8c1.68,3.52,4.76,6.49,5.22,10s-1.65,6.87-2.17,10.39a10.3,10.3,0,0,0,1.41,7.08,8.36,8.36,0,0,0,2.55,2.61,8.13,8.13,0,0,0,.81.47,8.64,8.64,0,0,0,2.76.92,9.23,9.23,0,0,0,8.54-4.35,13.77,13.77,0,0,0,1.54-9.75,28.36,28.36,0,0,0-3.82-9.3,20.87,20.87,0,0,1-3.65-8.12c-.41-3.48,1.22-6.83,2.35-10.15a22.39,22.39,0,0,0,.69-2.52c15.4-5.41,27.83-7.41,37.41-5.82a15.39,15.39,0,0,1,4.69,1.51c5.78,3.14,7.31,10.09,4.82,20.84-5,16.21-17,39.67-35.74,70.3l-.08,0-.15.26Q553,227.28,523.5,271.81h.1l0,0-1.26,1.91c-3.35,5.07-6.55,9.93-9.62,14.64-7.34,11.26-13.89,21.53-19.62,30.57-.3.47-.61,1-.91,1.43-4.74,7.47-8.43,13.53-11.08,18.31a75.84,75.84,0,0,0-4.22,8.51q10.8-38.24,20.64-70.31,11.43-37.51,21.47-66.67,6.62-19.29,12.57-34.92c.05-.14.1-.28.16-.42a12.06,12.06,0,0,0,.82-5.78,11.85,11.85,0,0,0-.37-1.94,12,12,0,0,0-4.34-6.4,36.58,36.58,0,0,0-17.38-8.32,41.55,41.55,0,0,0-17.4-.52c-.82.15-1.64.32-2.46.52-6.27,1.65-10.27,5.11-12,10.86q-1.79,7.23-3.62,14.85t-3.7,15.56q-2.64,11.26-5.33,23.21-8.07,35.88-16.56,78l-.27,1.28-1.81,9.1c-8,40.44-14.34,76.76-19.2,109-.82,5.49-1.62,10.88-2.36,16.13h0l0,.16a10.54,10.54,0,0,0,7.36,8.69,22.35,22.35,0,0,0,12.91,0,11.46,11.46,0,0,0,5-2.43,11.67,11.67,0,0,0,3.31-4.52c6.52-26.67,13.73-53.78,21.29-81.11-1.18,9.14,2,17.9,9.86,25.85a80,80,0,0,0,28,18.38c10.82,4.43,20,5.54,27.89,3.71,6.11-2.17,14.08-8.06,24.35-17.38s20.36-19.51,30.42-30.41,17.7-19.57,22.89-25.87a15.35,15.35,0,0,0,2.61-5.05,6.44,6.44,0,0,0-1-6.12c-2.26-2.84-5.78-2.91-11.17,0-3.65,2.33-7.47,4.87-11.64,7.6-10.86,7.17-22.09,14.23-33.91,21.49A249.67,249.67,0,0,1,532,360.14c-9.21,3.95-15.31,4.52-18.12,1.71a2.76,2.76,0,0,1-.23-1.64c.45-3.24,3.59-9.49,9.34-18.84,7.27-11.84,17.16-26.59,29.65-44.43l12.64-17.87-.14,0,.12-.17h0q13.08-18.64,27.59-38.78,19.05-26.39,35.54-50,14.29-20.4,26.7-38.62A54.58,54.58,0,0,0,663.23,118a36.41,36.41,0,0,0,7.29,5.86c6.13,3.76,11.19,3.65,15.34-.37A239.31,239.31,0,0,1,716.64,95,168.47,168.47,0,0,1,750.9,73.69c11.14-4.88,20-5.86,26.82-2.71A15.44,15.44,0,0,1,784,78c2.23,5,2.54,12,.85,20.64-.16.77-.32,1.56-.49,2.35a173.57,173.57,0,0,1-8,25Q772,136.76,766,148.94q-5.09,10.26-10.86,20.79-10.57,19.56-23.44,40c-10.86,16.83-21.57,32.95-32.37,48.16-2.17,3-4.23,5.91-6.34,8.82-6.52,10.86-11.73,18.68-12.49,18.24a.1.1,0,0,1,0-.05c-.26-1.41,4.18-11.16,9.77-23.49l-.11,0v0l.06,0c1.78-3.94,3.69-8,5.6-12.39,1-2,1.94-4.21,2.89-6.38q7.79-28.5,14.47-51,2.93-9.88,5.59-18.58,3.62-11.65,6.81-21.26a11.81,11.81,0,0,0-4.34-13,39.72,39.72,0,0,0-16.77-7.65,42.35,42.35,0,0,0-18.81,0,14.63,14.63,0,0,0-7.06,3.49q-.39.35-.75.72a14.83,14.83,0,0,0-3.6,6Q667.33,169.54,660,204h0q-6.89,32.49-14.25,70.65-.55,2.81-1.06,5.56h0c0,.14,0,.26-.07.39q-13.83,72.49-21.1,123.3c-.15,1-.3,2.06-.45,3.07a12.18,12.18,0,0,0,8.93,9.49,30.09,30.09,0,0,0,15.53.52c5.22-1.21,8.52-3.69,9.91-7.08,7-32.34,14.4-63.65,22-93.69,15.27-14.47,33.15-33.37,53.81-56.31q3.78-4.08,7.5-8.43h0Q753.34,237,765.06,222,778.83,204.34,791.45,185.85Z"/><path class="cls-1" d="M1037.43,259.69q5.19-19.6,10.62-38.85,4.88-17.15,9.93-34.05,8-26.73,14.68-48.43,11.38-37.59,18.84-60a12.41,12.41,0,0,0-5.11-13.28A43.34,43.34,0,0,0,1068.84,57a42.61,42.61,0,0,0-20,.26,15.74,15.74,0,0,0-2.14.7,16.27,16.27,0,0,0-9.79,10.88q-7.62,33.24-17.38,78.2l.13-.06v0l-.19.09q-6.15,28.56-13.25,61.93c-1.23,5.79-2.38,11.38-3.5,16.87a45.6,45.6,0,0,0-9.69-5.12,106.65,106.65,0,0,0-25.15-5.72q-4.16-.44-8.34-.54,7.75-25.85,14.87-49.22,8.52-28,16.1-52.14,13.95-44.5,20.85-64.43A13.47,13.47,0,0,0,1007,34.29c-.68-.61-1.38-1.19-2.1-1.75A41.78,41.78,0,0,0,989,24.79a39.82,39.82,0,0,0-20.39-.43,17.14,17.14,0,0,0-12.66,12,.88.88,0,0,0,0,.15c-2.78,10-6.07,22.62-9.93,37.7q-3.59,13.93-7.83,30.75-.82,3.22-1.66,6.54c-.46,1.79-.91,3.6-1.37,5.41q-2.13,8.46-4.32,17.2c-.58,2.32-1.16,4.64-1.74,7h0l-.1,0q-9,36.11-18.84,76.44c-15,2.22-29.74,4.78-44.07,8-6.26,2-12.76,3.73-14.67,3.41a.57.57,0,0,1-.37-.26c-.49-1.21,4.83-4.69,10.74-8.21q10.95-37.68,19.7-65.25l0,0q4.17-13.2,7.89-24.07a13.39,13.39,0,0,0,0-7.78,12.61,12.61,0,0,0-.73-1.88,13.37,13.37,0,0,0-3.62-4.63,39.16,39.16,0,0,0-17.38-8.69,40.51,40.51,0,0,0-20.05,0,17.38,17.38,0,0,0-12.14,12.36q-7.23,28.24-14.86,62.63v0h-.06Q814.54,210,808.25,240.7c-1.63,11.32-3.7,23.72-5.13,26.53h0c-.2.34-.38.54-.54.52s-.35-.26-.48-.7h0c-.9-2.86-1.05-13.71-1-24.31l-.13,0v-.11c-7,2.08-12.4,3.82-16.07,5-1.22.28-2.09.73-3,1-5.06,1.36-8.36,3.32-9.75,6a10.52,10.52,0,0,0-1,4.34l.13.05h0a35.13,35.13,0,0,0,.89,9,120.88,120.88,0,0,0,3,14.21,46.87,46.87,0,0,0,6.32,13.9c2.63,3.91,5.78,5.06,9.78,3.61,1.9-.74,3.8-1.45,5.7-2.36Q786,355,781.42,386.92a.13.13,0,0,0,0,.06v.07a11.67,11.67,0,0,0,2.83,6.27,11.8,11.8,0,0,0,5.86,3.6,28.21,28.21,0,0,0,15.51.52c5.23-1.39,8.69-3.89,9.9-7.63q5.18-20.37,10.29-39.88,8.85-33.58,17.5-64.67c-10.52,2.34-19,5.45-19.55,4.34-.06-.1,0-.25.13-.43,1.7-1.91,11.79-7.58,23.37-11.3,2.43-.8,4.91-1.54,7.34-2.17,14.88-5.15,29.94-10.06,45.19-14.6Q884,327.85,875,373.22q-6.42,32-9.46,53.46a11.62,11.62,0,0,0,8,10c4.17,8,11,15,11.43,23.9.24,5.14-1.8,10.14-3.06,15.2s-1.5,10.95,1.82,15c4.63,5.63,14.43,4.3,19.08-1.24a16.29,16.29,0,0,0,2.71-4.66c2-5,1.69-10.93.09-16.15-2.13-6.95-6.28-13-9.89-19.4a55.53,55.53,0,0,1-5.34-11.87c4.82-1.29,7.85-3.69,9.14-7.42v0l0,0q18.51-73.6,46-168.21a.49.49,0,0,0,0-.24c.52-2.76,1.07-5.64,1.57-8.53l.09-.5c.76-3.81,1.4-7.57,2-10.81,0-.17.07-.33.1-.49.83-4.69,1.57-8.31,2.23-9.51.15-.25.3-.38.44-.37.81,0,1.39,4.43,1.61,10.58h0V242h0c0,.15,0,.3,0,.45v4.44l.09,0V247q6.15-1.38,12-2.6l-.39-.09.2,0,.19,0Q984,240.62,1000,239c-1,4.73-1.88,9.33-2.74,13.78q-10.44,53.07-13.78,82.12c.89,4.82,4,7.78,9.08,9.3a31.13,31.13,0,0,0,15.8.32c5.21-1.21,8.34-3.67,9.73-7.25q9.18-39.36,19.36-77.62Z"/></g></g></svg>